# AST/ASF file generated using VICON BodyLanguage
# -----------------------------------------------
:version 1.10
:name VICON
:units
  mass 1.0
  length 0.45
  angle deg
:documentation
   .ast/.asf automatically generated from VICON data using
   VICON BodyBuilder and BodyLanguage model FoxedUp or BRILLIANT.MOD
:root
   order TX TY TZ RX RY RZ
   axis XYZ
   position 0 0 0  
   orientation 0 0 0 
:bonedata
  begin
     id 1 
     name lhipjoint
     direction 0.560651 -0.75055 0.34978 
     length 2.44936 
     axis 0 0 0  XYZ
  end
  begin
     id 2 
     name lfemur
     direction 0.34202 -0.939693 0  
     length 7.42139  
     axis 0 0 20  XYZ
    dof rx ry rz
    limits (-160.0 20.0)
           (-70.0 70.0)
           (-60.0 70.0)
  end
  begin
     id 3 
     name ltibia
     direction 0.34202 -0.939693 0   
     length 7.75674   
     axis 0 0 20   XYZ
    dof rx
    limits (-10.0 170.0)
  end
  begin
     id 4 
     name lfoot
     direction 0.0925879 -0.254383 0.962661   
     length 2.38688   
     axis -90 7.62852e-016 20   XYZ
    dof rx rz
    limits (-45.0 90.0)
           (-70.0 20.0)
  end
  begin
     id 5 
     name ltoes
     direction 1.53567e-011 -4.21973e-011 1   
     length 1.19228   
     axis -90 7.62852e-016 20   XYZ
    dof rx
    limits (-90.0 20.0)
  end
  begin
     id 6 
     name rhipjoint
     direction -0.540087 -0.762838 0.355506   
     length 2.4099  
     axis 0 0 0  XYZ 
  end
  begin
     id 7 
     name rfemur
     direction -0.34202 -0.939693 0   
     length 7.70794   
     axis 0 0 -20   XYZ
    dof rx ry rz
    limits (-160.0 20.0)
           (-70.0 70.0)
           (-70.0 60.0)
  end
  begin
     id 8 
     name rtibia
     direction -0.34202 -0.939693 0   
     length 7.66106   
     axis 0 0 -20   XYZ
    dof rx
    limits (-10.0 170.0)
 end
 begin
     id 9 
     name rfoot
     direction -0.0830975 -0.228308 0.970036   
     length 2.4989  
     axis -90 -7.62852e-016 -20   XYZ
    dof rx rz
    limits (-45.0 90.0)
           (-20.0 70.0)
  end
  begin
     id 10 
     name rtoes
     direction -1.53517e-011 -4.21842e-011 1   
     length 1.2498   
     axis -90 -7.62852e-016 -20   XYZ
    dof rx
    limits (-90.0 20.0)
  end
  begin
     id 11 
     name lowerback
     direction 0.0266356 0.99402 -0.105896   
     length 2.1545   
     axis 0 0 0   XYZ
    dof rx ry rz
    limits (-20.0 45.0)
           (-30.0 30.0)
           (-30.0 30.0)
  end
  begin
     id 12 
     name upperback
     direction 0.0130547 0.999192 0.0380027   
     length 2.1434   
     axis 0 0 0   XYZ
    dof rx ry rz
    limits (-20.0 45.0)
           (-30.0 30.0)
           (-30.0 30.0)
  end
  begin
     id 13 
     name thorax
     direction 0.000590299 0.996288 0.0860764   
     length 2.19049   
     axis 0 0 0   XYZ
    dof rx ry rz
    limits (-20.0 45.0)
           (-30.0 30.0)
           (-30.0 30.0)
  end
  begin
     id 14 
     name lowerneck
     direction -0.0432125 0.978219 0.203028   
     length 1.62441   
     axis 0 0 0   XYZ
    dof rx ry rz
    limits (-20.0 45.0)
           (-30.0 30.0)
           (-30.0 30.0)
  end
  begin
     id 15 
     name upperneck
     direction -0.0192309 0.991699 -0.127138   
     length 1.66666   
     axis 0 0 0   XYZ
    dof rx ry rz
    limits (-20.0 45.0)
           (-30.0 30.0)
           (-30.0 30.0)
  end
  begin
     id 16
     name head
     direction -0.00434499 0.997882 -0.0649107  
     length 1.67142  
     axis 0 0 0   XYZ
    dof rx ry rz
    limits (-20.0 45.0)
           (-30.0 30.0)
           (-30.0 30.0)
  end
  begin
     id 17 
     name lclavicle
     direction 0.970351 0.240904 -0.0196058  
     length 4.04862  
     axis 0 0 0   XYZ
    dof ry rz
    limits (-20.0 10.0)
           (0.0 20.0)
  end
  begin
     id 18 
     name lhumerus
     direction 1 -4.4896e-011 -1.40911e-018   
     length 5.58345   
     axis 180 -30 -90   XYZ
    dof rx ry rz
    limits (-60.0 90.0)
           (-90.0 90.0)
           (-90.0 90.0)
  end
  begin
     id 19
     name lradius
     direction 1 -4.48968e-011 5.88912e-028   
     length 3.71087   
     axis 180 -30 -90   XYZ
    dof rx
    limits (-10.0 170.0)
  end
  begin
     id 20
     name lwrist
     direction 1 -4.48955e-011 -8.83775e-028   
     length 1.85544   
     axis 5.52448e-016 90 90   XYZ
    dof ry
    limits (-180.0 0.0)
 end
  begin
     id 21 
     name lhand
     direction 1 -4.49035e-011 -1.76755e-027   
     length 0.562322   
     axis 1.12785e-015 90 90   XYZ
    dof rx rz
    limits (-90.0 90.0)
           (-45.0 45.0)
  end
  begin
     id 22 
     name lfingers
     direction 1 -4.48824e-011 -3.5351e-027   
     length 0.453359   
     axis 2.2557e-015 90 90   XYZ
    dof rx
    limits (0.0 90.0)
  end
  begin
     id 23
     name lthumb
     direction 0.707107 -6.34888e-011 0.707107   
     length 0.650935   
     axis -90 45 2.85299e-015   XYZ
    dof rx rz
    limits (-45.0 45.0)
           (-45.0 45.0)
  end
  begin
     id 24 
     name rclavicle
     direction -0.96165 0.268562 -0.0557131   
     length 4.05446  
     axis 0 0 0   XYZ 
    dof ry rz
    limits (-10.0 20.0)
           (-20.0 0.0)
  end
  begin
     id 25 
     name rhumerus
     direction -1 -4.48957e-011 -3.36329e-027  
     length 5.20357   
     axis 180 30 90   XYZ
    dof rx ry rz
    limits (-90.0 60.0)
           (-90.0 90.0)
           (-90.0 90.0)
  end
  begin
     id 26 
     name rradius
     direction -1 -4.48974e-011 4.51441e-027   
     length 3.64937   
     axis 180 30 90   XYZ
    dof rx
    limits (-10.0 170.0)
  end
  begin
     id 27 
     name rwrist
     direction -1 -4.4896e-011 -8.83775e-028   
     length 1.82468   
     axis 5.52448e-016 -90 -90   XYZ
    dof ry
    limits (-180.0 0.0)
  end
  begin
     id 28
     name rhand
     direction -1 -4.48996e-011 -1.76755e-027   
     length 0.617996   
     axis 1.12785e-015 -90 -90   XYZ
    dof rx rz
    limits (-90.0 90.0)
           (-45.0 45.0)
  end
  begin
     id 29
     name rfingers
     direction -1 -4.48957e-011 -3.5351e-027   
     length 0.498244   
     axis 2.2557e-015 -90 -90   XYZ
    dof rx
    limits (0.0 90.0)
  end
  begin
     id 30
     name rthumb
     direction -0.707107 -6.34931e-011 0.707107   
     length 0.715382   
     axis -90 -45 -2.85299e-015   XYZ
    dof rx rz
    limits (-45.0 45.0)
           (-45.0 45.0)
  end
:hierarchy
  begin
    root lhipjoint rhipjoint lowerback
    lhipjoint lfemur
    lfemur ltibia
    ltibia lfoot
    lfoot ltoes
    rhipjoint rfemur
    rfemur rtibia
    rtibia rfoot
    rfoot rtoes
    lowerback upperback
    upperback thorax
    thorax lowerneck lclavicle rclavicle
    lowerneck upperneck
    upperneck head
    lclavicle lhumerus
    lhumerus lradius
    lradius lwrist
    lwrist lhand lthumb
    lhand lfingers
    rclavicle rhumerus
    rhumerus rradius
    rradius rwrist
    rwrist rhand rthumb
    rhand rfingers
  end

#!OML:ASF H:\ManfredETheater\Project 1\Capture day 2\Session 1\Male1.ASF
:FULLY-SPECIFIED
:DEGREES
315
root 1.09373 15.4572 39.4507 27.7818 1.36405 -0.890152
lowerback 18.1693 -1.56872 4.1079
upperback -1.35351 -0.633307 4.60808
thorax -11.7667 -0.372243 2.95016
lowerneck -27.0011 1.61901 -0.846569
upperneck 1.48399 2.92783 -5.78494
head 4.67025 0.969733 -1.40902
rclavicle 1.74931e-014 -3.73715e-014
rhumerus -60.0643 1.64853 -82.9717
rradius 71.6267
rwrist -7.65448
rhand -35.6708 -5.02121
rfingers 7.12502
rthumb -8.7921 -34.8181
lclavicle 1.74931e-014 -3.73715e-014
lhumerus -45.1614 -27.9562 104.511
lradius 117.378
lwrist 14.7466
lhand -15.5493 0.168287
lfingers 7.12502
lthumb 10.6349 29.8792
rfemur -56.2285 -8.40717 28.9761
rtibia 81.4221
rfoot -31.4536 -4.68803
rtoes -26.3264
lfemur 0.0463253 -6.05685 -20.7241
ltibia 39.3894
lfoot 23.9969 -4.77388
ltoes 5.53939
316
root 1.0881 15.4743 39.7921 28.0031 1.5464 -1.71607
lowerback 18.0483 -1.57141 5.21127
upperback -1.06954 -0.402177 4.79818
thorax -11.3918 -0.323566 2.45416
lowerneck -27.1371 1.55496 -0.973585
upperneck 0.957076 2.86439 -5.87144
head 4.51806 0.942006 -1.42497
rclavicle 1.51076e-014 1.03368e-014
rhumerus -57.056 0.82771 -82.7711
rradius 69.9818
rwrist -6.92882
rhand -35.5204 -3.99066
rfingers 7.12502
rthumb -8.64699 -33.7936
lclavicle 1.51076e-014 1.03368e-014
lhumerus -45.7812 -26.9807 104.793
lradius 114.005
lwrist 16.4116
lhand -14.6097 1.28032
lfingers 7.12502
lthumb 11.5412 30.9426
rfemur -54.1734 -8.02061 29.5887
rtibia 80.1612
rfoot -32.11 -4.80249
rtoes -26.7811
lfemur -3.11853 -5.43584 -19.5544
ltibia 44.9497
lfoot 26.2042 -4.65823
ltoes 11.4545
317
root 1.0697 15.4902 40.1055 28.2235 1.40761 -2.33868
lowerback 18.2554 -1.45211 5.72937
upperback -0.92537 -0.111682 4.89764
thorax -11.3527 -0.213967 2.19217
lowerneck -26.9835 1.51293 -0.944569
upperneck 0.420147 2.77317 -5.97379
head 4.32585 0.906647 -1.47305
rclavicle -6.36111e-015 2.3059e-014
rhumerus -54.0154 -0.00137887 -82.7172
rradius 68.5205
rwrist -6.6433
rhand -35.2349 -2.81905
rfingers 7.12502
rthumb -8.37144 -32.6332
lclavicle -6.36111e-015 2.3059e-014
lhumerus -46.4088 -25.5686 104.874
lradius 110.088
lwrist 16.6009
lhand -17.4575 -0.692177
lfingers 7.12502
lthumb 8.79386 29.1046
rfemur -52.3821 -7.25701 29.8782
rtibia 78.9774
rfoot -32.28 -5.36291
rtoes -28.8417
lfemur -6.60694 -4.53247 -18.6515
ltibia 50.8623
lfoot 25.1473 -4.64009
ltoes 11.7328
318
root 1.05198 15.5092 40.4264 28.4783 1.40385 -3.14964
lowerback 18.4104 -1.36796 6.44216
upperback -0.806738 0.182225 5.07986
thorax -11.3097 -0.111062 1.911
lowerneck -26.9206 1.44984 -0.959939
upperneck -0.0275597 2.67156 -6.03687
head 4.17294 0.864773 -1.50243
rclavicle -1.98785e-014 1.01778e-013
rhumerus -50.8022 -0.480705 -82.8056
rradius 67.3201
rwrist -7.04316
rhand -35.1614 -2.25499
rfingers 7.12502
rthumb -8.30055 -32.0719
lclavicle -1.98785e-014 1.01778e-013
lhumerus -46.8074 -23.7969 104.7
lradius 105.631
lwrist 15.0719
lhand -17.4269 -0.585608
lfingers 7.12502
lthumb 8.82345 29.2099
rfemur -50.6347 -6.48322 30.383
rtibia 77.7369
rfoot -32.4706 -5.19292
rtoes -29.235
lfemur -10.1713 -3.49172 -17.4775
ltibia 56.879
lfoot 23.0355 -4.54998
ltoes 11.8616
319
root 1.03267 15.5187 40.7404 28.7278 1.27471 -3.75284
lowerback 18.4915 -1.1983 6.8588
upperback -0.574719 0.499234 5.19952
thorax -11.0886 0.0221495 1.71344
lowerneck -27.1447 1.33762 -0.979453
upperneck -0.41446 2.51849 -6.1176
head 4.07684 0.789502 -1.54278
rclavicle 1.51076e-014 -1.03368e-014
rhumerus -47.1813 -0.895643 -82.9753
rradius 66.5542
rwrist -8.25539
rhand -34.501 -3.50964
rfingers 7.12502
rthumb -7.66312 -33.3508
lclavicle 1.51076e-014 -1.03368e-014
lhumerus -46.7765 -22.0366 104.313
lradius 100.606
lwrist 13.0954
lhand -18.5718 -1.17825
lfingers 7.12502
lthumb 7.71849 28.6609
rfemur -48.9181 -5.80414 30.7322
rtibia 76.5246
rfoot -32.6575 -5.54306
rtoes -30.3022
lfemur -13.8304 -2.3655 -16.5902
ltibia 62.9607
lfoot 20.2282 -4.0655
ltoes 11.4892
320
root 1.01664 15.5218 41.0607 28.9255 1.07724 -4.44039
lowerback 18.5022 -1.01856 7.39575
upperback -0.371442 0.841723 5.26089
thorax -10.8536 0.160014 1.3772
lowerneck -27.0957 1.25697 -0.894945
upperneck -0.847779 2.36885 -6.2554
head 3.9325 0.718637 -1.61649
rclavicle 3.18055e-015 7.15625e-015
rhumerus -43.6348 -1.02316 -83.3642
rradius 66.3437
rwrist -10.2939
rhand -34.5575 -4.18427
rfingers 7.12502
rthumb -7.71765 -34.0234
lclavicle 3.18055e-015 7.15625e-015
lhumerus -46.6276 -20.0643 103.522
lradius 95.2273
lwrist 10.475
lhand -19.2014 -1.27858
lfingers 7.12502
lthumb 7.11078 28.582
rfemur -47.0803 -5.16382 31.1519
rtibia 75.2303
rfoot -32.7522 -5.68678
rtoes -30.979
lfemur -17.4998 -1.02982 -15.6835
ltibia 68.926
lfoot 16.9784 -3.62081
ltoes 7.59811
321
root 0.992737 15.5355 41.3707 28.9936 0.696039 -5.01251
lowerback 18.6718 -0.751513 7.45786
upperback -0.0303389 1.20753 5.39284
thorax -10.5556 0.341682 1.37883
lowerneck -27.0806 1.19535 -0.830093
upperneck -1.37531 2.24999 -6.47373
head 3.76538 0.659194 -1.70934
rclavicle 7.95139e-015 -2.78299e-014
rhumerus -39.8594 -0.658873 -83.8726
rradius 67.3262
rwrist -12.1511
rhand -34.6756 -9.27261
rfingers 7.12502
rthumb -7.83169 -39.1076
lclavicle 7.95139e-015 -2.78299e-014
lhumerus -45.9831 -17.8009 102.46
lradius 89.3168
lwrist 7.8087
lhand -20.2125 -2.09096
lfingers 7.12502
lthumb 6.13469 27.8002
rfemur -45.2005 -4.45506 31.4355
rtibia 73.9003
rfoot -32.6448 -5.79432
rtoes -31.5288
lfemur -21.202 0.385501 -14.9155
ltibia 74.5859
lfoot 14.1159 -3.00764
ltoes 5.76066
322
root 0.977121 15.5414 41.6953 29.047 0.409213 -5.57687
lowerback 19.3082 -0.571459 7.88434
upperback -0.213519 1.63323 5.39776
thorax -11.1036 0.501841 1.04046
lowerneck -26.7151 1.0879 -0.864783
upperneck -1.40052 2.11881 -6.61027
head 3.70848 0.592963 -1.75988
rclavicle 1.51076e-014 -1.43125e-014
rhumerus -37.0928 -0.227956 -84.2981
rradius 68.4501
rwrist -13.7199
rhand -34.7925 -9.19438
rfingers 7.12502
rthumb -7.94451 -39.0251
lclavicle 1.51076e-014 -1.43125e-014
lhumerus -46.214 -15.3366 101.324
lradius 83.2664
lwrist 5.94609
lhand -21.1563 -2.36733
lfingers 7.12502
lthumb 5.22341 27.5483
rfemur -43.1586 -4.05115 31.7355
rtibia 72.4981
rfoot -32.7179 -5.27908
rtoes -31.1327
lfemur -24.8367 1.74283 -14.1733
ltibia 79.8852
lfoot 11.5324 -2.53333
ltoes 4.47958
323
root 0.964489 15.5411 42.0281 28.8197 -0.177808 -5.85188
lowerback 19.8391 -0.289133 7.90214
upperback -0.070421 2.05235 5.35015
thorax -11.223 0.691792 0.856397
lowerneck -26.6259 0.960991 -0.953376
upperneck -1.42112 1.99058 -6.82205
head 3.69055 0.517814 -1.82657
rclavicle -1.35174e-014 -4.45278e-014
rhumerus -33.9694 0.303236 -84.691
rradius 69.9325
rwrist -14.4055
rhand -35.5481 -6.97575
rfingers 7.12502
rthumb -8.67369 -36.7776
lclavicle -1.35174e-014 -4.45278e-014
lhumerus -45.9081 -12.8776 99.8906
lradius 77.0676
lwrist 6.02218
lhand -19.2268 -0.955936
lfingers 7.12502
lthumb 7.08625 28.9054
rfemur -40.8213 -3.851 31.5898
rtibia 71.0978
rfoot -32.9759 -5.16366
rtoes -31.7534
lfemur -28.0899 3.09092 -13.9202
ltibia 84.7705
lfoot 9.26991 -1.8988
ltoes 5.75422
324
root 0.949223 15.5354 42.3583 28.8389 -0.686469 -6.11539
lowerback 19.9847 -0.0442127 7.91762
upperback -0.0265518 2.38413 5.30247
thorax -11.2386 0.842791 0.6973
lowerneck -26.2666 0.901092 -0.948127
upperneck -1.45286 1.91453 -7.05553
head 3.63617 0.473101 -1.90787
rclavicle -3.97569e-015 -1.43125e-014
rhumerus -31.2181 0.389652 -85.0751
rradius 71.8958
rwrist -13.2204
rhand -34.1556 -1.67375
rfingers 7.12502
rthumb -7.32972 -31.5268
lclavicle -3.97569e-015 -1.43125e-014
lhumerus -45.8798 -10.3998 98.1504
lradius 71.7553
lwrist 8.88446
lhand -19.6605 0.620358
lfingers 7.12502
lthumb 6.66752 30.4954
rfemur -38.7384 -3.57797 31.482
rtibia 69.6087
rfoot -32.9454 -5.05244
rtoes -32.3662
lfemur -31.7355 4.53038 -13.6757
ltibia 89.3688
lfoot 7.17667 -1.57336
ltoes 5.28998
325
root 0.936654 15.5281 42.6942 28.8621 -1.28084 -6.34379
lowerback 20.46 0.235757 7.86319
upperback -0.244188 2.8102 5.228
thorax -11.7381 1.02247 0.5223
lowerneck -25.9466 0.824571 -1.08393
upperneck -1.04671 1.87718 -7.09684
head 3.72053 0.446873 -1.90221
rclavicle 6.36111e-015 6.99722e-014
rhumerus -28.8103 1.17701 -85.5204
rradius 74.5045
rwrist -10.4459
rhand -33.7338 -3.30323
rfingers 7.12502
rthumb -6.9226 -33.17
lclavicle 6.36111e-015 6.99722e-014
lhumerus -46.9025 -8.55595 96.7229
lradius 66.9601
lwrist 11.6858
lhand -23.9018 -2.21857
lfingers 7.12502
lthumb 2.57219 27.7457
rfemur -36.6209 -3.29127 31.2751
rtibia 68.0592
rfoot -32.9343 -4.79612
rtoes -32.864
lfemur -35.4614 6.01607 -13.5413
ltibia 93.608
lfoot 5.41552 -1.40353
ltoes 4.34139
326
root 0.940265 15.5217 43.0524 28.8044 -1.69033 -6.78616
lowerback 20.1989 0.39382 8.28852
upperback 0.0348367 3.05095 5.20623
thorax -11.2366 1.12713 0.186521
lowerneck -25.9173 0.817997 -1.21443
upperneck -0.948563 1.91227 -7.06014
head 3.74666 0.464675 -1.86623
rclavicle -2.46493e-014 8.74653e-015
rhumerus -25.8934 2.65638 -86.0772
rradius 77.3557
rwrist -9.76263
rhand -33.0004 -2.68427
rfingers 7.12502
rthumb -6.21463 -32.5731
lclavicle -2.46493e-014 8.74653e-015
lhumerus -47.9109 -7.12315 95.1173
lradius 64.318
lwrist 16.3985
lhand -25.8251 -5.01121
lfingers 7.12502
lthumb 0.714713 24.9673
rfemur -34.1557 -3.25494 31.2341
rtibia 66.2256
rfoot -32.8154 -4.33455
rtoes -32.9762
lfemur -39.0159 7.38187 -13.2477
ltibia 97.4241
lfoot 2.96245 -1.12009
ltoes 2.09304
